<mxfile host="app.diagrams.net" modified="2024-02-11T18:17:29.397Z" agent="Mozilla/5.0 (Windows NT 10.0; Win64; x64) AppleWebKit/537.36 (KHTML, like Gecko) Chrome/121.0.0.0 Safari/537.36" etag="Kh9IlBWD80mqfqeLeCbb" version="23.1.2" type="device" pages="2">
  <diagram name="Page-1" id="CGqEqJvz2PoNKyRoOLti">
    <mxGraphModel dx="794" dy="420" grid="1" gridSize="10" guides="1" tooltips="1" connect="1" arrows="1" fold="1" page="1" pageScale="1" pageWidth="827" pageHeight="1169" math="0" shadow="0">
      <root>
        <mxCell id="0" />
        <mxCell id="1" parent="0" />
        <mxCell id="9P6gSdkkNkD4egnkRT8Z-1" value="&lt;font style=&quot;font-size: 22px;&quot;&gt;Version Controlling&lt;/font&gt;" style="text;html=1;strokeColor=none;fillColor=none;align=center;verticalAlign=middle;whiteSpace=wrap;rounded=0;" vertex="1" parent="1">
          <mxGeometry width="220" height="60" as="geometry" />
        </mxCell>
        <mxCell id="9P6gSdkkNkD4egnkRT8Z-2" value="" style="rounded=1;whiteSpace=wrap;html=1;" vertex="1" parent="1">
          <mxGeometry x="40" y="150" width="190" height="280" as="geometry" />
        </mxCell>
        <mxCell id="9P6gSdkkNkD4egnkRT8Z-3" value="" style="rounded=1;whiteSpace=wrap;html=1;" vertex="1" parent="1">
          <mxGeometry x="40" y="430" width="190" height="70" as="geometry" />
        </mxCell>
        <mxCell id="9P6gSdkkNkD4egnkRT8Z-4" value="" style="rounded=1;whiteSpace=wrap;html=1;" vertex="1" parent="1">
          <mxGeometry x="440" y="110" width="190" height="280" as="geometry" />
        </mxCell>
        <mxCell id="9P6gSdkkNkD4egnkRT8Z-5" value="" style="rounded=1;whiteSpace=wrap;html=1;" vertex="1" parent="1">
          <mxGeometry x="440" y="390" width="190" height="70" as="geometry" />
        </mxCell>
        <mxCell id="9P6gSdkkNkD4egnkRT8Z-6" value="" style="rounded=1;whiteSpace=wrap;html=1;" vertex="1" parent="1">
          <mxGeometry x="440" y="460" width="190" height="60" as="geometry" />
        </mxCell>
        <mxCell id="9P6gSdkkNkD4egnkRT8Z-7" value="" style="rounded=1;whiteSpace=wrap;html=1;fillColor=#d5e8d4;strokeColor=#82b366;" vertex="1" parent="1">
          <mxGeometry x="850" y="10" width="190" height="280" as="geometry" />
        </mxCell>
        <mxCell id="9P6gSdkkNkD4egnkRT8Z-8" value="" style="rounded=1;whiteSpace=wrap;html=1;fillColor=#d5e8d4;strokeColor=#82b366;" vertex="1" parent="1">
          <mxGeometry x="850" y="290" width="190" height="70" as="geometry" />
        </mxCell>
        <mxCell id="9P6gSdkkNkD4egnkRT8Z-9" value="" style="rounded=1;whiteSpace=wrap;html=1;fillColor=#d5e8d4;strokeColor=#82b366;" vertex="1" parent="1">
          <mxGeometry x="850" y="360" width="190" height="60" as="geometry" />
        </mxCell>
        <mxCell id="9P6gSdkkNkD4egnkRT8Z-10" value="&lt;font style=&quot;font-size: 17px;&quot;&gt;Ahmed&lt;/font&gt;" style="text;html=1;strokeColor=none;fillColor=none;align=center;verticalAlign=middle;whiteSpace=wrap;rounded=0;" vertex="1" parent="1">
          <mxGeometry x="750" y="30" width="60" height="30" as="geometry" />
        </mxCell>
        <mxCell id="9P6gSdkkNkD4egnkRT8Z-11" value="Ahmed Feature" style="rounded=1;whiteSpace=wrap;html=1;fillColor=#f8cecc;strokeColor=#b85450;" vertex="1" parent="1">
          <mxGeometry x="850" y="420" width="190" height="60" as="geometry" />
        </mxCell>
        <mxCell id="9P6gSdkkNkD4egnkRT8Z-12" value="" style="rounded=1;whiteSpace=wrap;html=1;fillColor=#d5e8d4;strokeColor=#82b366;" vertex="1" parent="1">
          <mxGeometry x="850" y="540" width="190" height="280" as="geometry" />
        </mxCell>
        <mxCell id="9P6gSdkkNkD4egnkRT8Z-13" value="" style="rounded=1;whiteSpace=wrap;html=1;fillColor=#d5e8d4;strokeColor=#82b366;" vertex="1" parent="1">
          <mxGeometry x="850" y="820" width="190" height="70" as="geometry" />
        </mxCell>
        <mxCell id="9P6gSdkkNkD4egnkRT8Z-14" value="" style="rounded=1;whiteSpace=wrap;html=1;fillColor=#d5e8d4;strokeColor=#82b366;" vertex="1" parent="1">
          <mxGeometry x="850" y="890" width="190" height="60" as="geometry" />
        </mxCell>
        <mxCell id="9P6gSdkkNkD4egnkRT8Z-15" value="&lt;font style=&quot;font-size: 17px;&quot;&gt;Ali&lt;/font&gt;" style="text;html=1;strokeColor=none;fillColor=none;align=center;verticalAlign=middle;whiteSpace=wrap;rounded=0;" vertex="1" parent="1">
          <mxGeometry x="720" y="555" width="60" height="30" as="geometry" />
        </mxCell>
        <mxCell id="9P6gSdkkNkD4egnkRT8Z-16" value="Ali Feature" style="rounded=1;whiteSpace=wrap;html=1;fillColor=#dae8fc;strokeColor=#6c8ebf;" vertex="1" parent="1">
          <mxGeometry x="850" y="950" width="190" height="60" as="geometry" />
        </mxCell>
        <mxCell id="9P6gSdkkNkD4egnkRT8Z-17" value="" style="rounded=1;whiteSpace=wrap;html=1;fillColor=#d5e8d4;strokeColor=#82b366;" vertex="1" parent="1">
          <mxGeometry x="1190" y="450" width="190" height="280" as="geometry" />
        </mxCell>
        <mxCell id="9P6gSdkkNkD4egnkRT8Z-18" value="" style="rounded=1;whiteSpace=wrap;html=1;fillColor=#d5e8d4;strokeColor=#82b366;" vertex="1" parent="1">
          <mxGeometry x="1190" y="730" width="190" height="70" as="geometry" />
        </mxCell>
        <mxCell id="9P6gSdkkNkD4egnkRT8Z-19" value="" style="rounded=1;whiteSpace=wrap;html=1;fillColor=#d5e8d4;strokeColor=#82b366;" vertex="1" parent="1">
          <mxGeometry x="1190" y="800" width="190" height="60" as="geometry" />
        </mxCell>
        <mxCell id="9P6gSdkkNkD4egnkRT8Z-20" value="Ahmed Feature" style="rounded=1;whiteSpace=wrap;html=1;fillColor=#f8cecc;strokeColor=#b85450;" vertex="1" parent="1">
          <mxGeometry x="1190" y="860" width="190" height="60" as="geometry" />
        </mxCell>
        <mxCell id="9P6gSdkkNkD4egnkRT8Z-21" value="Ali Feature" style="rounded=1;whiteSpace=wrap;html=1;fillColor=#dae8fc;strokeColor=#6c8ebf;" vertex="1" parent="1">
          <mxGeometry x="1190" y="920" width="190" height="60" as="geometry" />
        </mxCell>
        <mxCell id="9P6gSdkkNkD4egnkRT8Z-22" value="" style="rounded=1;whiteSpace=wrap;html=1;fillColor=#f8cecc;strokeColor=#b85450;" vertex="1" parent="1">
          <mxGeometry x="850" y="150" width="190" height="20" as="geometry" />
        </mxCell>
        <mxCell id="9P6gSdkkNkD4egnkRT8Z-23" value="" style="rounded=1;whiteSpace=wrap;html=1;fillColor=#f8cecc;strokeColor=#b85450;" vertex="1" parent="1">
          <mxGeometry x="850" y="315" width="190" height="20" as="geometry" />
        </mxCell>
        <mxCell id="9P6gSdkkNkD4egnkRT8Z-24" value="" style="rounded=1;whiteSpace=wrap;html=1;fillColor=#dae8fc;strokeColor=#6c8ebf;" vertex="1" parent="1">
          <mxGeometry x="850" y="910" width="190" height="20" as="geometry" />
        </mxCell>
      </root>
    </mxGraphModel>
  </diagram>
  <diagram id="uyGYuzoCqqe74yfVrbcl" name="Page-2">
    <mxGraphModel dx="794" dy="420" grid="1" gridSize="10" guides="1" tooltips="1" connect="1" arrows="1" fold="1" page="1" pageScale="1" pageWidth="827" pageHeight="1169" math="0" shadow="0">
      <root>
        <mxCell id="0" />
        <mxCell id="1" parent="0" />
        <mxCell id="-PY8_DcGRiwxApfR4jPv-1" value="Local Repo" style="rounded=0;whiteSpace=wrap;html=1;fontSize=23;" vertex="1" parent="1">
          <mxGeometry x="10" y="80" width="260" height="100" as="geometry" />
        </mxCell>
        <mxCell id="-PY8_DcGRiwxApfR4jPv-15" style="edgeStyle=orthogonalEdgeStyle;rounded=0;orthogonalLoop=1;jettySize=auto;html=1;exitX=0;exitY=0.5;exitDx=0;exitDy=0;entryX=0.75;entryY=0;entryDx=0;entryDy=0;" edge="1" parent="1" source="-PY8_DcGRiwxApfR4jPv-2" target="-PY8_DcGRiwxApfR4jPv-3">
          <mxGeometry relative="1" as="geometry">
            <Array as="points">
              <mxPoint x="460" y="130" />
              <mxPoint x="460" y="310" />
              <mxPoint x="420" y="310" />
              <mxPoint x="420" y="510" />
            </Array>
          </mxGeometry>
        </mxCell>
        <mxCell id="-PY8_DcGRiwxApfR4jPv-2" value="Local Repo" style="rounded=0;whiteSpace=wrap;html=1;fontSize=23;" vertex="1" parent="1">
          <mxGeometry x="500" y="80" width="260" height="100" as="geometry" />
        </mxCell>
        <mxCell id="-PY8_DcGRiwxApfR4jPv-7" style="edgeStyle=orthogonalEdgeStyle;rounded=0;orthogonalLoop=1;jettySize=auto;html=1;exitX=0;exitY=0.5;exitDx=0;exitDy=0;" edge="1" parent="1" source="-PY8_DcGRiwxApfR4jPv-3" target="-PY8_DcGRiwxApfR4jPv-1">
          <mxGeometry relative="1" as="geometry" />
        </mxCell>
        <mxCell id="-PY8_DcGRiwxApfR4jPv-10" style="edgeStyle=orthogonalEdgeStyle;rounded=0;orthogonalLoop=1;jettySize=auto;html=1;exitX=1;exitY=0.5;exitDx=0;exitDy=0;" edge="1" parent="1" source="-PY8_DcGRiwxApfR4jPv-3" target="-PY8_DcGRiwxApfR4jPv-2">
          <mxGeometry relative="1" as="geometry" />
        </mxCell>
        <mxCell id="-PY8_DcGRiwxApfR4jPv-3" value="Remote Repo" style="rounded=0;whiteSpace=wrap;html=1;fontSize=23;" vertex="1" parent="1">
          <mxGeometry x="260" y="510" width="260" height="100" as="geometry" />
        </mxCell>
        <mxCell id="-PY8_DcGRiwxApfR4jPv-4" value="Ahmed" style="text;html=1;strokeColor=none;fillColor=none;align=center;verticalAlign=middle;whiteSpace=wrap;rounded=0;" vertex="1" parent="1">
          <mxGeometry x="20" y="30" width="60" height="30" as="geometry" />
        </mxCell>
        <mxCell id="-PY8_DcGRiwxApfR4jPv-5" value="Ali" style="text;html=1;strokeColor=none;fillColor=none;align=center;verticalAlign=middle;whiteSpace=wrap;rounded=0;" vertex="1" parent="1">
          <mxGeometry x="500" y="30" width="60" height="30" as="geometry" />
        </mxCell>
        <mxCell id="-PY8_DcGRiwxApfR4jPv-8" value="&lt;font style=&quot;font-size: 17px;&quot;&gt;Pull&lt;/font&gt;" style="text;html=1;strokeColor=none;fillColor=none;align=center;verticalAlign=middle;whiteSpace=wrap;rounded=0;" vertex="1" parent="1">
          <mxGeometry x="70" y="250" width="60" height="30" as="geometry" />
        </mxCell>
        <mxCell id="-PY8_DcGRiwxApfR4jPv-11" value="&lt;font style=&quot;font-size: 17px;&quot;&gt;Pull&lt;/font&gt;" style="text;html=1;strokeColor=none;fillColor=none;align=center;verticalAlign=middle;whiteSpace=wrap;rounded=0;" vertex="1" parent="1">
          <mxGeometry x="640" y="240" width="60" height="30" as="geometry" />
        </mxCell>
        <mxCell id="-PY8_DcGRiwxApfR4jPv-13" style="edgeStyle=orthogonalEdgeStyle;rounded=0;orthogonalLoop=1;jettySize=auto;html=1;exitX=1;exitY=0.5;exitDx=0;exitDy=0;entryX=0.541;entryY=-0.007;entryDx=0;entryDy=0;entryPerimeter=0;" edge="1" parent="1" source="-PY8_DcGRiwxApfR4jPv-1" target="-PY8_DcGRiwxApfR4jPv-3">
          <mxGeometry relative="1" as="geometry">
            <Array as="points">
              <mxPoint x="330" y="130" />
              <mxPoint x="330" y="309" />
              <mxPoint x="370" y="309" />
              <mxPoint x="370" y="509" />
            </Array>
          </mxGeometry>
        </mxCell>
        <mxCell id="-PY8_DcGRiwxApfR4jPv-16" value="&lt;font style=&quot;font-size: 17px;&quot;&gt;Push&lt;/font&gt;" style="text;html=1;strokeColor=none;fillColor=none;align=center;verticalAlign=middle;whiteSpace=wrap;rounded=0;" vertex="1" parent="1">
          <mxGeometry x="440" y="370" width="60" height="30" as="geometry" />
        </mxCell>
        <mxCell id="-PY8_DcGRiwxApfR4jPv-17" value="Staging&lt;br&gt;Area" style="rounded=0;whiteSpace=wrap;html=1;" vertex="1" parent="1">
          <mxGeometry x="330" y="280" width="130" height="60" as="geometry" />
        </mxCell>
        <mxCell id="-PY8_DcGRiwxApfR4jPv-18" value="&lt;font style=&quot;font-size: 17px;&quot;&gt;Push&lt;/font&gt;" style="text;html=1;strokeColor=none;fillColor=none;align=center;verticalAlign=middle;whiteSpace=wrap;rounded=0;" vertex="1" parent="1">
          <mxGeometry x="300" y="370" width="60" height="30" as="geometry" />
        </mxCell>
        <mxCell id="-PY8_DcGRiwxApfR4jPv-19" value="&lt;font style=&quot;font-size: 17px;&quot;&gt;Add&lt;/font&gt;" style="text;html=1;strokeColor=none;fillColor=none;align=center;verticalAlign=middle;whiteSpace=wrap;rounded=0;" vertex="1" parent="1">
          <mxGeometry x="290" y="100" width="60" height="30" as="geometry" />
        </mxCell>
        <mxCell id="-PY8_DcGRiwxApfR4jPv-20" value="&lt;font style=&quot;font-size: 17px;&quot;&gt;Commit&lt;/font&gt;" style="text;html=1;strokeColor=none;fillColor=none;align=center;verticalAlign=middle;whiteSpace=wrap;rounded=0;" vertex="1" parent="1">
          <mxGeometry x="260" y="295" width="60" height="30" as="geometry" />
        </mxCell>
        <mxCell id="-PY8_DcGRiwxApfR4jPv-21" value="&lt;font style=&quot;font-size: 17px;&quot;&gt;Add&lt;/font&gt;" style="text;html=1;strokeColor=none;fillColor=none;align=center;verticalAlign=middle;whiteSpace=wrap;rounded=0;" vertex="1" parent="1">
          <mxGeometry x="440" y="100" width="60" height="30" as="geometry" />
        </mxCell>
        <mxCell id="-PY8_DcGRiwxApfR4jPv-22" value="&lt;font style=&quot;font-size: 17px;&quot;&gt;Commit&lt;/font&gt;" style="text;html=1;strokeColor=none;fillColor=none;align=center;verticalAlign=middle;whiteSpace=wrap;rounded=0;" vertex="1" parent="1">
          <mxGeometry x="470" y="290" width="60" height="30" as="geometry" />
        </mxCell>
      </root>
    </mxGraphModel>
  </diagram>
</mxfile>
